<?xml version="1.0" encoding="UTF-8"?>
<svg version="1.1" viewBox="0 0 183 42" xmlns="http://www.w3.org/2000/svg" xmlns:xlink="http://www.w3.org/1999/xlink">
<defs>
<polygon id="d" points="0.13928 0.15186 7.7708 0.15186 7.7708 7.7923 0.13928 7.7923"/>
<polygon id="c" points="0 0.14973 43.322 0.14973 43.322 14.326 0 14.326"/>
<polygon id="b" points="0.13928 0.15186 7.7708 0.15186 7.7708 7.7923 0.13928 7.7923"/>
<polygon id="a" points="0 0.14973 43.322 0.14973 43.322 14.326 0 14.326"/>
</defs>
<g fill="none" fill-rule="evenodd">
<g transform="translate(-31 -24)">
<g transform="translate(31 24)">
<path d="m50.954 35.12v-17.124c0-0.58727 0.47538-1.0634 1.062-1.0634h1.4745c0.58639 0 1.062 0.47612 1.062 1.0634v17.124c0 0.58727-0.47556 1.0632-1.062 1.0632h-1.4745c-0.58657 0-1.062-0.47594-1.062-1.0632" fill="#0A3999"/>
<path d="m59.641 29.39c0 2.365 1.7029 3.9878 3.8455 3.9878 2.1149 0 3.9281-1.5402 3.9281-3.9878 0-2.3648-1.8132-3.9601-3.9281-3.9601-2.1426 0-3.8455 1.5126-3.8455 3.9601m11.344-11.367v17.096c0 0.58708-0.47556 1.0632-1.0621 1.0632h-1.1248c-0.53858 0-0.99179-0.40349-1.0548-0.93904l-0.10936-0.93079c-1.0438 1.6224-2.7195 2.1723-4.3674 2.1723-3.9829 0-6.977-2.6399-6.977-7.0951 0-4.6752 2.9391-7.0951 6.8945-7.0951 1.4283 0 3.6532 0.77012 4.4499 2.1724v-6.4442c0-0.58727 0.47538-1.0632 1.0621-1.0632h1.2268c0.58657 0 1.0621 0.47594 1.0621 1.0632" fill="#0A3999"/>
<path d="m83.207 27.823c-0.22001-1.7601-1.5934-2.6401-3.516-2.6401-1.813 0-3.2963 0.87998-3.7907 2.6401h7.3067zm-7.3617 2.7777c0.21983 1.6774 1.6756 2.8875 4.0379 2.8875 0.96688 0 2.169-0.2863 3.0148-0.7925 0.4054-0.24246 0.92694-0.16048 1.2631 0.17167l0.65784 0.65017c0.48252 0.47686 0.39935 1.2745-0.16542 1.6501-1.3895 0.92437-3.1934 1.3728-4.8252 1.3728-4.6695 0-7.4439-2.8875-7.4439-7.2326 0-4.125 2.8019-7.0951 7.1968-7.0951 4.2441 0 6.9946 2.4598 6.8987 7.3564-0.011175 0.57406-0.49022 1.0315-1.0636 1.0315h-9.5709z" fill="#0A3999"/>
<path d="m90.897 29.39c0 2.5851 1.7854 4.125 4.0104 4.125 5.2739 0 5.2739-8.2226 0-8.2226-2.225 0-4.0104 1.5126-4.0104 4.0977m9.1318-6.7649h1.1502c0.58657 0 1.0621 0.47594 1.0621 1.0634v11.431c0 0.58708-0.47556 1.0632-1.0621 1.0632h-1.1195c-0.55232 0-1.0125-0.42385-1.0583-0.97499l-0.083718-1.0052c-0.76903 1.5953-2.8841 2.3654-4.3949 2.3925-4.0104 0.027878-6.9768-2.4476-6.9768-7.2049 0-4.6752 3.1038-7.1228 7.0594-7.0951 1.8127 0 3.5433 0.85229 4.3123 2.2001l0.05111-0.86916c0.032974-0.56214 0.49791-1.0008 1.0601-1.0008" fill="#0A3999"/>
<path d="m107.88 32.801h5.5486c1.4833 0 3.5984-0.49501 3.5984-2.31 0-1.7326-2.1151-2.6399-3.5984-2.6399h-5.5486v4.9499zm0-8.1403h5.5486c2.2798 0 3.0215-0.96233 3.0215-2.0626 0-0.87998-0.71426-2.3648-3.0215-2.3648h-5.5486v4.4274zm12.168-2.1453c0 1.4854-0.71426 2.9152-2.4996 3.7127 2.2523 0.68759 3.0765 3.0801 3.0765 4.2902 0 4.2902-3.2139 5.665-7.1966 5.665h-8.0574c-0.58639 0-1.062-0.47594-1.062-1.0632v-17.124c0-0.58727 0.47556-1.0634 1.062-1.0634h8.0574c3.7904 0 6.6198 1.7051 6.6198 5.5825z" fill="#0A3999"/>
<path d="m124.44 22.625c0.58657 0 1.062 0.47612 1.062 1.0634v6.0317c0 2.0233 1.0839 3.5704 3.1478 3.6283 1.9834 0.055755 3.5819-1.6358 3.5819-3.6223v-6.0377c0-0.58727 0.47538-1.0634 1.062-1.0634h1.1995c0.58657 0 1.0621 0.47612 1.0621 1.0634v11.459c0 0.58727-0.47556 1.0632-1.0621 1.0632h-0.98904c-0.53785 0-0.99069-0.40258-1.0544-0.93721l-0.10808-0.90548c-1.401 1.375-2.6918 2.0353-4.5873 2.0353-3.2412 0-5.6036-2.4479-5.6036-6.6554v-6.059c0-0.58727 0.47556-1.0634 1.0621-1.0634h1.2272z" fill="#0A3999"/>
<path d="m140.32 29.39c0 2.365 1.7031 3.9878 3.8457 3.9878 2.1151 0 3.928-1.5402 3.928-3.9878 0-2.3648-1.8128-3.9601-3.928-3.9601-2.1426 0-3.8457 1.5126-3.8457 3.9601m11.344-11.367v17.096c0 0.58708-0.47538 1.0632-1.062 1.0632h-1.125c-0.53858 0-0.99179-0.40349-1.0548-0.93904l-0.10936-0.93079c-1.0438 1.6224-2.7195 2.1723-4.3674 2.1723-3.9827 0-6.9768-2.6399-6.9768-7.0951 0-4.6752 2.9389-7.0951 6.8944-7.0951 1.4283 0 3.6534 0.77012 4.4499 2.1724v-6.4442c0-0.58727 0.47556-1.0632 1.0621-1.0632h1.227c0.58657 0 1.062 0.47594 1.062 1.0632" fill="#0A3999"/>
<path d="m156.4 29.39c0 2.365 1.7031 3.9878 3.8457 3.9878 2.1151 0 3.928-1.5402 3.928-3.9878 0-2.3648-1.8128-3.9601-3.928-3.9601-2.1426 0-3.8457 1.5126-3.8457 3.9601m11.344-11.367v17.096c0 0.58708-0.47538 1.0632-1.062 1.0632h-1.125c-0.53858 0-0.99179-0.40349-1.0548-0.93904l-0.10936-0.93079c-1.0436 1.6224-2.7193 2.1723-4.3674 2.1723-3.9827 0-6.9768-2.6399-6.9768-7.0951 0-4.6752 2.9389-7.0951 6.8944-7.0951 1.4283 0 3.6534 0.77012 4.4499 2.1724v-6.4442c0-0.58727 0.47556-1.0632 1.0621-1.0632h1.227c0.58657 0 1.062 0.47594 1.062 1.0632" fill="#0A3999"/>
<path d="m182.69 24.109l-7.3532 17.096c-0.1678 0.38992-0.55122 0.64266-0.97549 0.64266h-1.369c-0.76299 0-1.2772-0.78149-0.97585-1.4832l1.8902-4.4021-4.8173-11.874c-0.28358-0.69933 0.23027-1.4636 0.98391-1.4636h1.5707c0.45065 0 0.8522 0.28465 1.0017 0.71015l1.8106 5.1477 1.2909 3.8224 1.4009-3.7402 2.1997-5.2856c0.16487-0.39634 0.55158-0.65439 0.98025-0.65439h1.3866c0.76335 0 1.2774 0.78204 0.97549 1.4839" fill="#0A3999"/>
<g transform="translate(24.547 .031546)">
<mask id="h" fill="white">
<use xlink:href="#d"/>
</mask>
<path d="m3.9551 7.7923c2.1072 0 3.8157-1.7104 3.8157-3.8202 0-2.1099-1.7084-3.8203-3.8157-3.8203-2.1074 0-3.8158 1.7104-3.8158 3.8203 0 2.1097 1.7084 3.8202 3.8158 3.8202" fill="#FFBA00" mask="url(#h)"/>
</g>
<path d="m32.64 16.456l-3.3002-5.7226c-0.36565-0.63422-1.2798-0.63422-1.6456 0l-3.3049 5.7311c1.2939 0.42789 2.6757 0.66283 4.113 0.66283 1.4465 0 2.8365-0.23806 4.1377-0.67127" fill="#00BFFF"/>
<path d="m32.64 16.456c-1.3012 0.43321-2.6912 0.67127-4.1377 0.67127-1.4373 0-2.8191-0.23494-4.113-0.66283l-3.6902 6.399c0.77618 0.32316 1.5773 0.59699 2.3981 0.82331 1.7225 0.47484 3.5337 0.73344 5.405 0.73344 2.772 0 5.4156-0.55884 7.8273-1.5663l-3.6896-6.3979z" fill="#0091FF"/>
<path d="m36.33 22.854c-2.4117 1.0076-5.0553 1.5665-7.8273 1.5665-1.8713 0-3.6825-0.25879-5.405-0.73362-0.82087-0.22614-1.6218-0.50015-2.3981-0.82331-3.359-1.3981-6.2649-3.6711-8.4366-6.5327-0.40778-0.5372-1.2343-0.47576-1.5712 0.10858l-3.2106 5.5675c2.6081 3.0482 5.8641 5.5247 9.553 7.2132 3.2721 1.4977 6.8839 2.3753 10.685 2.4815 0.26013 0.0073363 0.52118 0.011738 0.78314 0.011738 4.0978 0 7.9898-0.89722 11.492-2.5042l-3.6647-6.355z" fill="#0E64E6"/>
<g transform="translate(0 21.857)">
<mask id="g" fill="white">
<use xlink:href="#c"/>
</mask>
<path d="m39.995 7.3519c-3.5022 1.607-7.3943 2.5042-11.492 2.5042-0.26196 0-0.52301-0.0044018-0.78314-0.011738-3.8016-0.10619-7.4133-0.98379-10.685-2.4815-3.6889-1.6884-6.9449-4.165-9.553-7.2132l-7.3523 12.749c-0.36565 0.63422 0.091412 1.4269 0.82289 1.4269h41.419c0.73129 0 1.1885-0.79268 0.82271-1.4269l-3.1989-5.5473z" fill="#0B42B0" mask="url(#g)"/>
</g>
<g transform="translate(24.547 .031546)">
<mask id="f" fill="white">
<use xlink:href="#b"/>
</mask>
<path d="m3.9551 7.7923c2.1072 0 3.8157-1.7104 3.8157-3.8202 0-2.1099-1.7084-3.8203-3.8157-3.8203-2.1074 0-3.8158 1.7104-3.8158 3.8203 0 2.1097 1.7084 3.8202 3.8158 3.8202" fill="#FFBA00" mask="url(#f)"/>
</g>
<path d="m32.64 16.456l-3.3002-5.7226c-0.36565-0.63422-1.2798-0.63422-1.6456 0l-3.3049 5.7311c1.2939 0.42789 2.6757 0.66283 4.113 0.66283 1.4465 0 2.8365-0.23806 4.1377-0.67127" fill="#00BFFF"/>
<path d="m32.64 16.456c-1.3012 0.43321-2.6912 0.67127-4.1377 0.67127-1.4373 0-2.8191-0.23494-4.113-0.66283l-3.6902 6.399c0.77618 0.32316 1.5773 0.59699 2.3981 0.82331 1.7225 0.47484 3.5337 0.73344 5.405 0.73344 2.772 0 5.4156-0.55884 7.8273-1.5663l-3.6896-6.3979z" fill="#0091FF"/>
<g transform="translate(0 21.857)">
<mask id="e" fill="white">
<use xlink:href="#a"/>
</mask>
<path d="m39.995 7.3519c-3.5022 1.607-7.3943 2.5042-11.492 2.5042-0.26196 0-0.52301-0.0044018-0.78314-0.011738-3.8016-0.10619-7.4133-0.98379-10.685-2.4815-3.6889-1.6884-6.9449-4.165-9.553-7.2132l-7.3523 12.749c-0.36565 0.63422 0.091412 1.4269 0.82289 1.4269h41.419c0.73129 0 1.1885-0.79268 0.82271-1.4269l-3.1989-5.5473z" fill="#0B42B0" mask="url(#e)"/>
</g>
</g>
</g>
</g>
</svg>
